<svg xmlns="http://www.w3.org/2000/svg" xmlns:xlink="http://www.w3.org/1999/xlink" width="218" height="107" viewBox="0 0 218 107">
  <defs>
    <clipPath id="clip-path">
      <rect width="218" height="107" fill="none"/>
    </clipPath>
  </defs>
  <g id="Repeat_Grid_1" data-name="Repeat Grid 1" clip-path="url(#clip-path)">
    <g transform="translate(-924 -1221)">
      <circle id="Ellipse_25" data-name="Ellipse 25" cx="2.5" cy="2.5" r="2.5" transform="translate(924 1221)" fill="#565665"/>
    </g>
    <g transform="translate(-914 -1221)">
      <circle id="Ellipse_25-2" data-name="Ellipse 25" cx="2.5" cy="2.5" r="2.5" transform="translate(924 1221)" fill="#565665"/>
    </g>
    <g transform="translate(-904 -1221)">
      <circle id="Ellipse_25-3" data-name="Ellipse 25" cx="2.5" cy="2.5" r="2.5" transform="translate(924 1221)" fill="#565665"/>
    </g>
    <g transform="translate(-894 -1221)">
      <circle id="Ellipse_25-4" data-name="Ellipse 25" cx="2.5" cy="2.5" r="2.5" transform="translate(924 1221)" fill="#565665"/>
    </g>
    <g transform="translate(-884 -1221)">
      <circle id="Ellipse_25-5" data-name="Ellipse 25" cx="2.5" cy="2.5" r="2.5" transform="translate(924 1221)" fill="#565665"/>
    </g>
    <g transform="translate(-874 -1221)">
      <circle id="Ellipse_25-6" data-name="Ellipse 25" cx="2.5" cy="2.5" r="2.5" transform="translate(924 1221)" fill="#565665"/>
    </g>
    <g transform="translate(-864 -1221)">
      <circle id="Ellipse_25-7" data-name="Ellipse 25" cx="2.5" cy="2.5" r="2.5" transform="translate(924 1221)" fill="#565665"/>
    </g>
    <g transform="translate(-854 -1221)">
      <circle id="Ellipse_25-8" data-name="Ellipse 25" cx="2.5" cy="2.5" r="2.5" transform="translate(924 1221)" fill="#565665"/>
    </g>
    <g transform="translate(-844 -1221)">
      <circle id="Ellipse_25-9" data-name="Ellipse 25" cx="2.5" cy="2.5" r="2.5" transform="translate(924 1221)" fill="#565665"/>
    </g>
    <g transform="translate(-834 -1221)">
      <circle id="Ellipse_25-10" data-name="Ellipse 25" cx="2.5" cy="2.5" r="2.5" transform="translate(924 1221)" fill="#565665"/>
    </g>
    <g transform="translate(-824 -1221)">
      <circle id="Ellipse_25-11" data-name="Ellipse 25" cx="2.5" cy="2.5" r="2.5" transform="translate(924 1221)" fill="#565665"/>
    </g>
    <g transform="translate(-814 -1221)">
      <circle id="Ellipse_25-12" data-name="Ellipse 25" cx="2.5" cy="2.5" r="2.5" transform="translate(924 1221)" fill="#565665"/>
    </g>
    <g transform="translate(-804 -1221)">
      <circle id="Ellipse_25-13" data-name="Ellipse 25" cx="2.5" cy="2.5" r="2.5" transform="translate(924 1221)" fill="#565665"/>
    </g>
    <g transform="translate(-794 -1221)">
      <circle id="Ellipse_25-14" data-name="Ellipse 25" cx="2.5" cy="2.5" r="2.5" transform="translate(924 1221)" fill="#565665"/>
    </g>
    <g transform="translate(-784 -1221)">
      <circle id="Ellipse_25-15" data-name="Ellipse 25" cx="2.5" cy="2.5" r="2.5" transform="translate(924 1221)" fill="#565665"/>
    </g>
    <g transform="translate(-774 -1221)">
      <circle id="Ellipse_25-16" data-name="Ellipse 25" cx="2.5" cy="2.5" r="2.5" transform="translate(924 1221)" fill="#565665"/>
    </g>
    <g transform="translate(-764 -1221)">
      <circle id="Ellipse_25-17" data-name="Ellipse 25" cx="2.5" cy="2.5" r="2.5" transform="translate(924 1221)" fill="#565665"/>
    </g>
    <g transform="translate(-754 -1221)">
      <circle id="Ellipse_25-18" data-name="Ellipse 25" cx="2.5" cy="2.5" r="2.5" transform="translate(924 1221)" fill="#565665"/>
    </g>
    <g transform="translate(-744 -1221)">
      <circle id="Ellipse_25-19" data-name="Ellipse 25" cx="2.5" cy="2.5" r="2.5" transform="translate(924 1221)" fill="#565665"/>
    </g>
    <g transform="translate(-734 -1221)">
      <circle id="Ellipse_25-20" data-name="Ellipse 25" cx="2.5" cy="2.5" r="2.5" transform="translate(924 1221)" fill="#565665"/>
    </g>
    <g transform="translate(-724 -1221)">
      <circle id="Ellipse_25-21" data-name="Ellipse 25" cx="2.5" cy="2.5" r="2.5" transform="translate(924 1221)" fill="#565665"/>
    </g>
    <g transform="translate(-714 -1221)">
      <circle id="Ellipse_25-22" data-name="Ellipse 25" cx="2.5" cy="2.5" r="2.5" transform="translate(924 1221)" fill="#565665"/>
    </g>
    <g transform="translate(-924 -1211)">
      <circle id="Ellipse_25-23" data-name="Ellipse 25" cx="2.5" cy="2.5" r="2.5" transform="translate(924 1221)" fill="#565665"/>
    </g>
    <g transform="translate(-914 -1211)">
      <circle id="Ellipse_25-24" data-name="Ellipse 25" cx="2.5" cy="2.5" r="2.5" transform="translate(924 1221)" fill="#565665"/>
    </g>
    <g transform="translate(-904 -1211)">
      <circle id="Ellipse_25-25" data-name="Ellipse 25" cx="2.5" cy="2.5" r="2.5" transform="translate(924 1221)" fill="#565665"/>
    </g>
    <g transform="translate(-894 -1211)">
      <circle id="Ellipse_25-26" data-name="Ellipse 25" cx="2.5" cy="2.5" r="2.5" transform="translate(924 1221)" fill="#565665"/>
    </g>
    <g transform="translate(-884 -1211)">
      <circle id="Ellipse_25-27" data-name="Ellipse 25" cx="2.5" cy="2.5" r="2.5" transform="translate(924 1221)" fill="#565665"/>
    </g>
    <g transform="translate(-874 -1211)">
      <circle id="Ellipse_25-28" data-name="Ellipse 25" cx="2.5" cy="2.5" r="2.5" transform="translate(924 1221)" fill="#565665"/>
    </g>
    <g transform="translate(-864 -1211)">
      <circle id="Ellipse_25-29" data-name="Ellipse 25" cx="2.5" cy="2.5" r="2.5" transform="translate(924 1221)" fill="#565665"/>
    </g>
    <g transform="translate(-854 -1211)">
      <circle id="Ellipse_25-30" data-name="Ellipse 25" cx="2.5" cy="2.5" r="2.5" transform="translate(924 1221)" fill="#565665"/>
    </g>
    <g transform="translate(-844 -1211)">
      <circle id="Ellipse_25-31" data-name="Ellipse 25" cx="2.5" cy="2.5" r="2.5" transform="translate(924 1221)" fill="#565665"/>
    </g>
    <g transform="translate(-834 -1211)">
      <circle id="Ellipse_25-32" data-name="Ellipse 25" cx="2.5" cy="2.5" r="2.5" transform="translate(924 1221)" fill="#565665"/>
    </g>
    <g transform="translate(-824 -1211)">
      <circle id="Ellipse_25-33" data-name="Ellipse 25" cx="2.5" cy="2.5" r="2.5" transform="translate(924 1221)" fill="#565665"/>
    </g>
    <g transform="translate(-814 -1211)">
      <circle id="Ellipse_25-34" data-name="Ellipse 25" cx="2.5" cy="2.5" r="2.5" transform="translate(924 1221)" fill="#565665"/>
    </g>
    <g transform="translate(-804 -1211)">
      <circle id="Ellipse_25-35" data-name="Ellipse 25" cx="2.5" cy="2.5" r="2.5" transform="translate(924 1221)" fill="#565665"/>
    </g>
    <g transform="translate(-794 -1211)">
      <circle id="Ellipse_25-36" data-name="Ellipse 25" cx="2.5" cy="2.5" r="2.5" transform="translate(924 1221)" fill="#565665"/>
    </g>
    <g transform="translate(-784 -1211)">
      <circle id="Ellipse_25-37" data-name="Ellipse 25" cx="2.5" cy="2.5" r="2.5" transform="translate(924 1221)" fill="#565665"/>
    </g>
    <g transform="translate(-774 -1211)">
      <circle id="Ellipse_25-38" data-name="Ellipse 25" cx="2.5" cy="2.5" r="2.5" transform="translate(924 1221)" fill="#565665"/>
    </g>
    <g transform="translate(-764 -1211)">
      <circle id="Ellipse_25-39" data-name="Ellipse 25" cx="2.5" cy="2.5" r="2.5" transform="translate(924 1221)" fill="#565665"/>
    </g>
    <g transform="translate(-754 -1211)">
      <circle id="Ellipse_25-40" data-name="Ellipse 25" cx="2.5" cy="2.5" r="2.5" transform="translate(924 1221)" fill="#565665"/>
    </g>
    <g transform="translate(-744 -1211)">
      <circle id="Ellipse_25-41" data-name="Ellipse 25" cx="2.5" cy="2.5" r="2.5" transform="translate(924 1221)" fill="#565665"/>
    </g>
    <g transform="translate(-734 -1211)">
      <circle id="Ellipse_25-42" data-name="Ellipse 25" cx="2.5" cy="2.5" r="2.5" transform="translate(924 1221)" fill="#565665"/>
    </g>
    <g transform="translate(-724 -1211)">
      <circle id="Ellipse_25-43" data-name="Ellipse 25" cx="2.5" cy="2.5" r="2.5" transform="translate(924 1221)" fill="#565665"/>
    </g>
    <g transform="translate(-714 -1211)">
      <circle id="Ellipse_25-44" data-name="Ellipse 25" cx="2.5" cy="2.5" r="2.5" transform="translate(924 1221)" fill="#565665"/>
    </g>
    <g transform="translate(-924 -1201)">
      <circle id="Ellipse_25-45" data-name="Ellipse 25" cx="2.5" cy="2.5" r="2.5" transform="translate(924 1221)" fill="#565665"/>
    </g>
    <g transform="translate(-914 -1201)">
      <circle id="Ellipse_25-46" data-name="Ellipse 25" cx="2.5" cy="2.5" r="2.5" transform="translate(924 1221)" fill="#565665"/>
    </g>
    <g transform="translate(-904 -1201)">
      <circle id="Ellipse_25-47" data-name="Ellipse 25" cx="2.5" cy="2.5" r="2.5" transform="translate(924 1221)" fill="#565665"/>
    </g>
    <g transform="translate(-894 -1201)">
      <circle id="Ellipse_25-48" data-name="Ellipse 25" cx="2.5" cy="2.5" r="2.5" transform="translate(924 1221)" fill="#565665"/>
    </g>
    <g transform="translate(-884 -1201)">
      <circle id="Ellipse_25-49" data-name="Ellipse 25" cx="2.5" cy="2.5" r="2.5" transform="translate(924 1221)" fill="#565665"/>
    </g>
    <g transform="translate(-874 -1201)">
      <circle id="Ellipse_25-50" data-name="Ellipse 25" cx="2.5" cy="2.5" r="2.5" transform="translate(924 1221)" fill="#565665"/>
    </g>
    <g transform="translate(-864 -1201)">
      <circle id="Ellipse_25-51" data-name="Ellipse 25" cx="2.5" cy="2.5" r="2.5" transform="translate(924 1221)" fill="#565665"/>
    </g>
    <g transform="translate(-854 -1201)">
      <circle id="Ellipse_25-52" data-name="Ellipse 25" cx="2.5" cy="2.5" r="2.5" transform="translate(924 1221)" fill="#565665"/>
    </g>
    <g transform="translate(-844 -1201)">
      <circle id="Ellipse_25-53" data-name="Ellipse 25" cx="2.5" cy="2.5" r="2.5" transform="translate(924 1221)" fill="#565665"/>
    </g>
    <g transform="translate(-834 -1201)">
      <circle id="Ellipse_25-54" data-name="Ellipse 25" cx="2.5" cy="2.5" r="2.5" transform="translate(924 1221)" fill="#565665"/>
    </g>
    <g transform="translate(-824 -1201)">
      <circle id="Ellipse_25-55" data-name="Ellipse 25" cx="2.5" cy="2.5" r="2.5" transform="translate(924 1221)" fill="#565665"/>
    </g>
    <g transform="translate(-814 -1201)">
      <circle id="Ellipse_25-56" data-name="Ellipse 25" cx="2.5" cy="2.5" r="2.5" transform="translate(924 1221)" fill="#565665"/>
    </g>
    <g transform="translate(-804 -1201)">
      <circle id="Ellipse_25-57" data-name="Ellipse 25" cx="2.5" cy="2.5" r="2.5" transform="translate(924 1221)" fill="#565665"/>
    </g>
    <g transform="translate(-794 -1201)">
      <circle id="Ellipse_25-58" data-name="Ellipse 25" cx="2.5" cy="2.5" r="2.5" transform="translate(924 1221)" fill="#565665"/>
    </g>
    <g transform="translate(-784 -1201)">
      <circle id="Ellipse_25-59" data-name="Ellipse 25" cx="2.5" cy="2.5" r="2.5" transform="translate(924 1221)" fill="#565665"/>
    </g>
    <g transform="translate(-774 -1201)">
      <circle id="Ellipse_25-60" data-name="Ellipse 25" cx="2.5" cy="2.5" r="2.5" transform="translate(924 1221)" fill="#565665"/>
    </g>
    <g transform="translate(-764 -1201)">
      <circle id="Ellipse_25-61" data-name="Ellipse 25" cx="2.5" cy="2.5" r="2.5" transform="translate(924 1221)" fill="#565665"/>
    </g>
    <g transform="translate(-754 -1201)">
      <circle id="Ellipse_25-62" data-name="Ellipse 25" cx="2.5" cy="2.5" r="2.5" transform="translate(924 1221)" fill="#565665"/>
    </g>
    <g transform="translate(-744 -1201)">
      <circle id="Ellipse_25-63" data-name="Ellipse 25" cx="2.5" cy="2.5" r="2.5" transform="translate(924 1221)" fill="#565665"/>
    </g>
    <g transform="translate(-734 -1201)">
      <circle id="Ellipse_25-64" data-name="Ellipse 25" cx="2.5" cy="2.5" r="2.5" transform="translate(924 1221)" fill="#565665"/>
    </g>
    <g transform="translate(-724 -1201)">
      <circle id="Ellipse_25-65" data-name="Ellipse 25" cx="2.5" cy="2.5" r="2.5" transform="translate(924 1221)" fill="#565665"/>
    </g>
    <g transform="translate(-714 -1201)">
      <circle id="Ellipse_25-66" data-name="Ellipse 25" cx="2.5" cy="2.5" r="2.5" transform="translate(924 1221)" fill="#565665"/>
    </g>
    <g transform="translate(-924 -1191)">
      <circle id="Ellipse_25-67" data-name="Ellipse 25" cx="2.5" cy="2.5" r="2.5" transform="translate(924 1221)" fill="#565665"/>
    </g>
    <g transform="translate(-914 -1191)">
      <circle id="Ellipse_25-68" data-name="Ellipse 25" cx="2.5" cy="2.5" r="2.5" transform="translate(924 1221)" fill="#565665"/>
    </g>
    <g transform="translate(-904 -1191)">
      <circle id="Ellipse_25-69" data-name="Ellipse 25" cx="2.5" cy="2.5" r="2.5" transform="translate(924 1221)" fill="#565665"/>
    </g>
    <g transform="translate(-894 -1191)">
      <circle id="Ellipse_25-70" data-name="Ellipse 25" cx="2.5" cy="2.5" r="2.5" transform="translate(924 1221)" fill="#565665"/>
    </g>
    <g transform="translate(-884 -1191)">
      <circle id="Ellipse_25-71" data-name="Ellipse 25" cx="2.5" cy="2.5" r="2.5" transform="translate(924 1221)" fill="#565665"/>
    </g>
    <g transform="translate(-874 -1191)">
      <circle id="Ellipse_25-72" data-name="Ellipse 25" cx="2.5" cy="2.5" r="2.5" transform="translate(924 1221)" fill="#565665"/>
    </g>
    <g transform="translate(-864 -1191)">
      <circle id="Ellipse_25-73" data-name="Ellipse 25" cx="2.5" cy="2.5" r="2.5" transform="translate(924 1221)" fill="#565665"/>
    </g>
    <g transform="translate(-854 -1191)">
      <circle id="Ellipse_25-74" data-name="Ellipse 25" cx="2.5" cy="2.5" r="2.5" transform="translate(924 1221)" fill="#565665"/>
    </g>
    <g transform="translate(-844 -1191)">
      <circle id="Ellipse_25-75" data-name="Ellipse 25" cx="2.5" cy="2.5" r="2.5" transform="translate(924 1221)" fill="#565665"/>
    </g>
    <g transform="translate(-834 -1191)">
      <circle id="Ellipse_25-76" data-name="Ellipse 25" cx="2.5" cy="2.5" r="2.5" transform="translate(924 1221)" fill="#565665"/>
    </g>
    <g transform="translate(-824 -1191)">
      <circle id="Ellipse_25-77" data-name="Ellipse 25" cx="2.5" cy="2.5" r="2.5" transform="translate(924 1221)" fill="#565665"/>
    </g>
    <g transform="translate(-814 -1191)">
      <circle id="Ellipse_25-78" data-name="Ellipse 25" cx="2.5" cy="2.5" r="2.5" transform="translate(924 1221)" fill="#565665"/>
    </g>
    <g transform="translate(-804 -1191)">
      <circle id="Ellipse_25-79" data-name="Ellipse 25" cx="2.5" cy="2.5" r="2.5" transform="translate(924 1221)" fill="#565665"/>
    </g>
    <g transform="translate(-794 -1191)">
      <circle id="Ellipse_25-80" data-name="Ellipse 25" cx="2.5" cy="2.5" r="2.5" transform="translate(924 1221)" fill="#565665"/>
    </g>
    <g transform="translate(-784 -1191)">
      <circle id="Ellipse_25-81" data-name="Ellipse 25" cx="2.5" cy="2.5" r="2.5" transform="translate(924 1221)" fill="#565665"/>
    </g>
    <g transform="translate(-774 -1191)">
      <circle id="Ellipse_25-82" data-name="Ellipse 25" cx="2.5" cy="2.5" r="2.5" transform="translate(924 1221)" fill="#565665"/>
    </g>
    <g transform="translate(-764 -1191)">
      <circle id="Ellipse_25-83" data-name="Ellipse 25" cx="2.5" cy="2.5" r="2.5" transform="translate(924 1221)" fill="#565665"/>
    </g>
    <g transform="translate(-754 -1191)">
      <circle id="Ellipse_25-84" data-name="Ellipse 25" cx="2.5" cy="2.5" r="2.5" transform="translate(924 1221)" fill="#565665"/>
    </g>
    <g transform="translate(-744 -1191)">
      <circle id="Ellipse_25-85" data-name="Ellipse 25" cx="2.5" cy="2.5" r="2.5" transform="translate(924 1221)" fill="#565665"/>
    </g>
    <g transform="translate(-734 -1191)">
      <circle id="Ellipse_25-86" data-name="Ellipse 25" cx="2.5" cy="2.5" r="2.5" transform="translate(924 1221)" fill="#565665"/>
    </g>
    <g transform="translate(-724 -1191)">
      <circle id="Ellipse_25-87" data-name="Ellipse 25" cx="2.5" cy="2.5" r="2.5" transform="translate(924 1221)" fill="#565665"/>
    </g>
    <g transform="translate(-714 -1191)">
      <circle id="Ellipse_25-88" data-name="Ellipse 25" cx="2.5" cy="2.5" r="2.5" transform="translate(924 1221)" fill="#565665"/>
    </g>
    <g transform="translate(-924 -1181)">
      <circle id="Ellipse_25-89" data-name="Ellipse 25" cx="2.5" cy="2.5" r="2.5" transform="translate(924 1221)" fill="#565665"/>
    </g>
    <g transform="translate(-914 -1181)">
      <circle id="Ellipse_25-90" data-name="Ellipse 25" cx="2.5" cy="2.5" r="2.5" transform="translate(924 1221)" fill="#565665"/>
    </g>
    <g transform="translate(-904 -1181)">
      <circle id="Ellipse_25-91" data-name="Ellipse 25" cx="2.5" cy="2.5" r="2.5" transform="translate(924 1221)" fill="#565665"/>
    </g>
    <g transform="translate(-894 -1181)">
      <circle id="Ellipse_25-92" data-name="Ellipse 25" cx="2.5" cy="2.5" r="2.5" transform="translate(924 1221)" fill="#565665"/>
    </g>
    <g transform="translate(-884 -1181)">
      <circle id="Ellipse_25-93" data-name="Ellipse 25" cx="2.5" cy="2.5" r="2.5" transform="translate(924 1221)" fill="#565665"/>
    </g>
    <g transform="translate(-874 -1181)">
      <circle id="Ellipse_25-94" data-name="Ellipse 25" cx="2.5" cy="2.5" r="2.5" transform="translate(924 1221)" fill="#565665"/>
    </g>
    <g transform="translate(-864 -1181)">
      <circle id="Ellipse_25-95" data-name="Ellipse 25" cx="2.5" cy="2.5" r="2.5" transform="translate(924 1221)" fill="#565665"/>
    </g>
    <g transform="translate(-854 -1181)">
      <circle id="Ellipse_25-96" data-name="Ellipse 25" cx="2.5" cy="2.5" r="2.5" transform="translate(924 1221)" fill="#565665"/>
    </g>
    <g transform="translate(-844 -1181)">
      <circle id="Ellipse_25-97" data-name="Ellipse 25" cx="2.5" cy="2.5" r="2.5" transform="translate(924 1221)" fill="#565665"/>
    </g>
    <g transform="translate(-834 -1181)">
      <circle id="Ellipse_25-98" data-name="Ellipse 25" cx="2.5" cy="2.5" r="2.5" transform="translate(924 1221)" fill="#565665"/>
    </g>
    <g transform="translate(-824 -1181)">
      <circle id="Ellipse_25-99" data-name="Ellipse 25" cx="2.5" cy="2.5" r="2.5" transform="translate(924 1221)" fill="#565665"/>
    </g>
    <g transform="translate(-814 -1181)">
      <circle id="Ellipse_25-100" data-name="Ellipse 25" cx="2.5" cy="2.5" r="2.5" transform="translate(924 1221)" fill="#565665"/>
    </g>
    <g transform="translate(-804 -1181)">
      <circle id="Ellipse_25-101" data-name="Ellipse 25" cx="2.5" cy="2.5" r="2.5" transform="translate(924 1221)" fill="#565665"/>
    </g>
    <g transform="translate(-794 -1181)">
      <circle id="Ellipse_25-102" data-name="Ellipse 25" cx="2.5" cy="2.5" r="2.5" transform="translate(924 1221)" fill="#565665"/>
    </g>
    <g transform="translate(-784 -1181)">
      <circle id="Ellipse_25-103" data-name="Ellipse 25" cx="2.5" cy="2.5" r="2.5" transform="translate(924 1221)" fill="#565665"/>
    </g>
    <g transform="translate(-774 -1181)">
      <circle id="Ellipse_25-104" data-name="Ellipse 25" cx="2.5" cy="2.5" r="2.5" transform="translate(924 1221)" fill="#565665"/>
    </g>
    <g transform="translate(-764 -1181)">
      <circle id="Ellipse_25-105" data-name="Ellipse 25" cx="2.5" cy="2.5" r="2.5" transform="translate(924 1221)" fill="#565665"/>
    </g>
    <g transform="translate(-754 -1181)">
      <circle id="Ellipse_25-106" data-name="Ellipse 25" cx="2.5" cy="2.5" r="2.5" transform="translate(924 1221)" fill="#565665"/>
    </g>
    <g transform="translate(-744 -1181)">
      <circle id="Ellipse_25-107" data-name="Ellipse 25" cx="2.5" cy="2.5" r="2.5" transform="translate(924 1221)" fill="#565665"/>
    </g>
    <g transform="translate(-734 -1181)">
      <circle id="Ellipse_25-108" data-name="Ellipse 25" cx="2.5" cy="2.5" r="2.5" transform="translate(924 1221)" fill="#565665"/>
    </g>
    <g transform="translate(-724 -1181)">
      <circle id="Ellipse_25-109" data-name="Ellipse 25" cx="2.5" cy="2.5" r="2.5" transform="translate(924 1221)" fill="#565665"/>
    </g>
    <g transform="translate(-714 -1181)">
      <circle id="Ellipse_25-110" data-name="Ellipse 25" cx="2.5" cy="2.5" r="2.5" transform="translate(924 1221)" fill="#565665"/>
    </g>
    <g transform="translate(-924 -1171)">
      <circle id="Ellipse_25-111" data-name="Ellipse 25" cx="2.5" cy="2.5" r="2.5" transform="translate(924 1221)" fill="#565665"/>
    </g>
    <g transform="translate(-914 -1171)">
      <circle id="Ellipse_25-112" data-name="Ellipse 25" cx="2.5" cy="2.5" r="2.5" transform="translate(924 1221)" fill="#565665"/>
    </g>
    <g transform="translate(-904 -1171)">
      <circle id="Ellipse_25-113" data-name="Ellipse 25" cx="2.5" cy="2.5" r="2.5" transform="translate(924 1221)" fill="#565665"/>
    </g>
    <g transform="translate(-894 -1171)">
      <circle id="Ellipse_25-114" data-name="Ellipse 25" cx="2.5" cy="2.5" r="2.5" transform="translate(924 1221)" fill="#565665"/>
    </g>
    <g transform="translate(-884 -1171)">
      <circle id="Ellipse_25-115" data-name="Ellipse 25" cx="2.5" cy="2.5" r="2.5" transform="translate(924 1221)" fill="#565665"/>
    </g>
    <g transform="translate(-874 -1171)">
      <circle id="Ellipse_25-116" data-name="Ellipse 25" cx="2.5" cy="2.5" r="2.5" transform="translate(924 1221)" fill="#565665"/>
    </g>
    <g transform="translate(-864 -1171)">
      <circle id="Ellipse_25-117" data-name="Ellipse 25" cx="2.5" cy="2.5" r="2.5" transform="translate(924 1221)" fill="#565665"/>
    </g>
    <g transform="translate(-854 -1171)">
      <circle id="Ellipse_25-118" data-name="Ellipse 25" cx="2.5" cy="2.5" r="2.5" transform="translate(924 1221)" fill="#565665"/>
    </g>
    <g transform="translate(-844 -1171)">
      <circle id="Ellipse_25-119" data-name="Ellipse 25" cx="2.5" cy="2.5" r="2.5" transform="translate(924 1221)" fill="#565665"/>
    </g>
    <g transform="translate(-834 -1171)">
      <circle id="Ellipse_25-120" data-name="Ellipse 25" cx="2.5" cy="2.5" r="2.5" transform="translate(924 1221)" fill="#565665"/>
    </g>
    <g transform="translate(-824 -1171)">
      <circle id="Ellipse_25-121" data-name="Ellipse 25" cx="2.5" cy="2.5" r="2.5" transform="translate(924 1221)" fill="#565665"/>
    </g>
    <g transform="translate(-814 -1171)">
      <circle id="Ellipse_25-122" data-name="Ellipse 25" cx="2.5" cy="2.5" r="2.5" transform="translate(924 1221)" fill="#565665"/>
    </g>
    <g transform="translate(-804 -1171)">
      <circle id="Ellipse_25-123" data-name="Ellipse 25" cx="2.5" cy="2.5" r="2.5" transform="translate(924 1221)" fill="#565665"/>
    </g>
    <g transform="translate(-794 -1171)">
      <circle id="Ellipse_25-124" data-name="Ellipse 25" cx="2.5" cy="2.5" r="2.5" transform="translate(924 1221)" fill="#565665"/>
    </g>
    <g transform="translate(-784 -1171)">
      <circle id="Ellipse_25-125" data-name="Ellipse 25" cx="2.5" cy="2.5" r="2.5" transform="translate(924 1221)" fill="#565665"/>
    </g>
    <g transform="translate(-774 -1171)">
      <circle id="Ellipse_25-126" data-name="Ellipse 25" cx="2.5" cy="2.5" r="2.5" transform="translate(924 1221)" fill="#565665"/>
    </g>
    <g transform="translate(-764 -1171)">
      <circle id="Ellipse_25-127" data-name="Ellipse 25" cx="2.5" cy="2.5" r="2.5" transform="translate(924 1221)" fill="#565665"/>
    </g>
    <g transform="translate(-754 -1171)">
      <circle id="Ellipse_25-128" data-name="Ellipse 25" cx="2.5" cy="2.5" r="2.5" transform="translate(924 1221)" fill="#565665"/>
    </g>
    <g transform="translate(-744 -1171)">
      <circle id="Ellipse_25-129" data-name="Ellipse 25" cx="2.5" cy="2.5" r="2.5" transform="translate(924 1221)" fill="#565665"/>
    </g>
    <g transform="translate(-734 -1171)">
      <circle id="Ellipse_25-130" data-name="Ellipse 25" cx="2.5" cy="2.5" r="2.5" transform="translate(924 1221)" fill="#565665"/>
    </g>
    <g transform="translate(-724 -1171)">
      <circle id="Ellipse_25-131" data-name="Ellipse 25" cx="2.5" cy="2.5" r="2.5" transform="translate(924 1221)" fill="#565665"/>
    </g>
    <g transform="translate(-714 -1171)">
      <circle id="Ellipse_25-132" data-name="Ellipse 25" cx="2.5" cy="2.5" r="2.5" transform="translate(924 1221)" fill="#565665"/>
    </g>
    <g transform="translate(-924 -1161)">
      <circle id="Ellipse_25-133" data-name="Ellipse 25" cx="2.5" cy="2.5" r="2.5" transform="translate(924 1221)" fill="#565665"/>
    </g>
    <g transform="translate(-914 -1161)">
      <circle id="Ellipse_25-134" data-name="Ellipse 25" cx="2.5" cy="2.5" r="2.5" transform="translate(924 1221)" fill="#565665"/>
    </g>
    <g transform="translate(-904 -1161)">
      <circle id="Ellipse_25-135" data-name="Ellipse 25" cx="2.5" cy="2.5" r="2.5" transform="translate(924 1221)" fill="#565665"/>
    </g>
    <g transform="translate(-894 -1161)">
      <circle id="Ellipse_25-136" data-name="Ellipse 25" cx="2.5" cy="2.5" r="2.5" transform="translate(924 1221)" fill="#565665"/>
    </g>
    <g transform="translate(-884 -1161)">
      <circle id="Ellipse_25-137" data-name="Ellipse 25" cx="2.5" cy="2.5" r="2.5" transform="translate(924 1221)" fill="#565665"/>
    </g>
    <g transform="translate(-874 -1161)">
      <circle id="Ellipse_25-138" data-name="Ellipse 25" cx="2.5" cy="2.5" r="2.5" transform="translate(924 1221)" fill="#565665"/>
    </g>
    <g transform="translate(-864 -1161)">
      <circle id="Ellipse_25-139" data-name="Ellipse 25" cx="2.5" cy="2.5" r="2.5" transform="translate(924 1221)" fill="#565665"/>
    </g>
    <g transform="translate(-854 -1161)">
      <circle id="Ellipse_25-140" data-name="Ellipse 25" cx="2.5" cy="2.5" r="2.5" transform="translate(924 1221)" fill="#565665"/>
    </g>
    <g transform="translate(-844 -1161)">
      <circle id="Ellipse_25-141" data-name="Ellipse 25" cx="2.5" cy="2.5" r="2.5" transform="translate(924 1221)" fill="#565665"/>
    </g>
    <g transform="translate(-834 -1161)">
      <circle id="Ellipse_25-142" data-name="Ellipse 25" cx="2.5" cy="2.5" r="2.5" transform="translate(924 1221)" fill="#565665"/>
    </g>
    <g transform="translate(-824 -1161)">
      <circle id="Ellipse_25-143" data-name="Ellipse 25" cx="2.5" cy="2.5" r="2.5" transform="translate(924 1221)" fill="#565665"/>
    </g>
    <g transform="translate(-814 -1161)">
      <circle id="Ellipse_25-144" data-name="Ellipse 25" cx="2.5" cy="2.5" r="2.5" transform="translate(924 1221)" fill="#565665"/>
    </g>
    <g transform="translate(-804 -1161)">
      <circle id="Ellipse_25-145" data-name="Ellipse 25" cx="2.5" cy="2.5" r="2.5" transform="translate(924 1221)" fill="#565665"/>
    </g>
    <g transform="translate(-794 -1161)">
      <circle id="Ellipse_25-146" data-name="Ellipse 25" cx="2.5" cy="2.5" r="2.5" transform="translate(924 1221)" fill="#565665"/>
    </g>
    <g transform="translate(-784 -1161)">
      <circle id="Ellipse_25-147" data-name="Ellipse 25" cx="2.5" cy="2.5" r="2.5" transform="translate(924 1221)" fill="#565665"/>
    </g>
    <g transform="translate(-774 -1161)">
      <circle id="Ellipse_25-148" data-name="Ellipse 25" cx="2.5" cy="2.5" r="2.5" transform="translate(924 1221)" fill="#565665"/>
    </g>
    <g transform="translate(-764 -1161)">
      <circle id="Ellipse_25-149" data-name="Ellipse 25" cx="2.5" cy="2.5" r="2.5" transform="translate(924 1221)" fill="#565665"/>
    </g>
    <g transform="translate(-754 -1161)">
      <circle id="Ellipse_25-150" data-name="Ellipse 25" cx="2.5" cy="2.5" r="2.5" transform="translate(924 1221)" fill="#565665"/>
    </g>
    <g transform="translate(-744 -1161)">
      <circle id="Ellipse_25-151" data-name="Ellipse 25" cx="2.5" cy="2.5" r="2.5" transform="translate(924 1221)" fill="#565665"/>
    </g>
    <g transform="translate(-734 -1161)">
      <circle id="Ellipse_25-152" data-name="Ellipse 25" cx="2.5" cy="2.5" r="2.5" transform="translate(924 1221)" fill="#565665"/>
    </g>
    <g transform="translate(-724 -1161)">
      <circle id="Ellipse_25-153" data-name="Ellipse 25" cx="2.5" cy="2.5" r="2.5" transform="translate(924 1221)" fill="#565665"/>
    </g>
    <g transform="translate(-714 -1161)">
      <circle id="Ellipse_25-154" data-name="Ellipse 25" cx="2.5" cy="2.5" r="2.5" transform="translate(924 1221)" fill="#565665"/>
    </g>
    <g transform="translate(-924 -1151)">
      <circle id="Ellipse_25-155" data-name="Ellipse 25" cx="2.5" cy="2.5" r="2.5" transform="translate(924 1221)" fill="#565665"/>
    </g>
    <g transform="translate(-914 -1151)">
      <circle id="Ellipse_25-156" data-name="Ellipse 25" cx="2.5" cy="2.5" r="2.5" transform="translate(924 1221)" fill="#565665"/>
    </g>
    <g transform="translate(-904 -1151)">
      <circle id="Ellipse_25-157" data-name="Ellipse 25" cx="2.5" cy="2.5" r="2.5" transform="translate(924 1221)" fill="#565665"/>
    </g>
    <g transform="translate(-894 -1151)">
      <circle id="Ellipse_25-158" data-name="Ellipse 25" cx="2.5" cy="2.5" r="2.5" transform="translate(924 1221)" fill="#565665"/>
    </g>
    <g transform="translate(-884 -1151)">
      <circle id="Ellipse_25-159" data-name="Ellipse 25" cx="2.5" cy="2.5" r="2.5" transform="translate(924 1221)" fill="#565665"/>
    </g>
    <g transform="translate(-874 -1151)">
      <circle id="Ellipse_25-160" data-name="Ellipse 25" cx="2.5" cy="2.5" r="2.5" transform="translate(924 1221)" fill="#565665"/>
    </g>
    <g transform="translate(-864 -1151)">
      <circle id="Ellipse_25-161" data-name="Ellipse 25" cx="2.5" cy="2.5" r="2.5" transform="translate(924 1221)" fill="#565665"/>
    </g>
    <g transform="translate(-854 -1151)">
      <circle id="Ellipse_25-162" data-name="Ellipse 25" cx="2.5" cy="2.5" r="2.5" transform="translate(924 1221)" fill="#565665"/>
    </g>
    <g transform="translate(-844 -1151)">
      <circle id="Ellipse_25-163" data-name="Ellipse 25" cx="2.5" cy="2.5" r="2.5" transform="translate(924 1221)" fill="#565665"/>
    </g>
    <g transform="translate(-834 -1151)">
      <circle id="Ellipse_25-164" data-name="Ellipse 25" cx="2.5" cy="2.5" r="2.5" transform="translate(924 1221)" fill="#565665"/>
    </g>
    <g transform="translate(-824 -1151)">
      <circle id="Ellipse_25-165" data-name="Ellipse 25" cx="2.5" cy="2.5" r="2.5" transform="translate(924 1221)" fill="#565665"/>
    </g>
    <g transform="translate(-814 -1151)">
      <circle id="Ellipse_25-166" data-name="Ellipse 25" cx="2.5" cy="2.5" r="2.5" transform="translate(924 1221)" fill="#565665"/>
    </g>
    <g transform="translate(-804 -1151)">
      <circle id="Ellipse_25-167" data-name="Ellipse 25" cx="2.5" cy="2.5" r="2.5" transform="translate(924 1221)" fill="#565665"/>
    </g>
    <g transform="translate(-794 -1151)">
      <circle id="Ellipse_25-168" data-name="Ellipse 25" cx="2.5" cy="2.5" r="2.5" transform="translate(924 1221)" fill="#565665"/>
    </g>
    <g transform="translate(-784 -1151)">
      <circle id="Ellipse_25-169" data-name="Ellipse 25" cx="2.5" cy="2.5" r="2.5" transform="translate(924 1221)" fill="#565665"/>
    </g>
    <g transform="translate(-774 -1151)">
      <circle id="Ellipse_25-170" data-name="Ellipse 25" cx="2.5" cy="2.5" r="2.5" transform="translate(924 1221)" fill="#565665"/>
    </g>
    <g transform="translate(-764 -1151)">
      <circle id="Ellipse_25-171" data-name="Ellipse 25" cx="2.5" cy="2.5" r="2.5" transform="translate(924 1221)" fill="#565665"/>
    </g>
    <g transform="translate(-754 -1151)">
      <circle id="Ellipse_25-172" data-name="Ellipse 25" cx="2.5" cy="2.5" r="2.5" transform="translate(924 1221)" fill="#565665"/>
    </g>
    <g transform="translate(-744 -1151)">
      <circle id="Ellipse_25-173" data-name="Ellipse 25" cx="2.5" cy="2.5" r="2.5" transform="translate(924 1221)" fill="#565665"/>
    </g>
    <g transform="translate(-734 -1151)">
      <circle id="Ellipse_25-174" data-name="Ellipse 25" cx="2.5" cy="2.5" r="2.5" transform="translate(924 1221)" fill="#565665"/>
    </g>
    <g transform="translate(-724 -1151)">
      <circle id="Ellipse_25-175" data-name="Ellipse 25" cx="2.5" cy="2.5" r="2.5" transform="translate(924 1221)" fill="#565665"/>
    </g>
    <g transform="translate(-714 -1151)">
      <circle id="Ellipse_25-176" data-name="Ellipse 25" cx="2.5" cy="2.5" r="2.5" transform="translate(924 1221)" fill="#565665"/>
    </g>
    <g transform="translate(-924 -1141)">
      <circle id="Ellipse_25-177" data-name="Ellipse 25" cx="2.5" cy="2.5" r="2.5" transform="translate(924 1221)" fill="#565665"/>
    </g>
    <g transform="translate(-914 -1141)">
      <circle id="Ellipse_25-178" data-name="Ellipse 25" cx="2.5" cy="2.5" r="2.5" transform="translate(924 1221)" fill="#565665"/>
    </g>
    <g transform="translate(-904 -1141)">
      <circle id="Ellipse_25-179" data-name="Ellipse 25" cx="2.5" cy="2.5" r="2.5" transform="translate(924 1221)" fill="#565665"/>
    </g>
    <g transform="translate(-894 -1141)">
      <circle id="Ellipse_25-180" data-name="Ellipse 25" cx="2.5" cy="2.5" r="2.5" transform="translate(924 1221)" fill="#565665"/>
    </g>
    <g transform="translate(-884 -1141)">
      <circle id="Ellipse_25-181" data-name="Ellipse 25" cx="2.5" cy="2.5" r="2.5" transform="translate(924 1221)" fill="#565665"/>
    </g>
    <g transform="translate(-874 -1141)">
      <circle id="Ellipse_25-182" data-name="Ellipse 25" cx="2.5" cy="2.5" r="2.5" transform="translate(924 1221)" fill="#565665"/>
    </g>
    <g transform="translate(-864 -1141)">
      <circle id="Ellipse_25-183" data-name="Ellipse 25" cx="2.5" cy="2.5" r="2.5" transform="translate(924 1221)" fill="#565665"/>
    </g>
    <g transform="translate(-854 -1141)">
      <circle id="Ellipse_25-184" data-name="Ellipse 25" cx="2.5" cy="2.5" r="2.5" transform="translate(924 1221)" fill="#565665"/>
    </g>
    <g transform="translate(-844 -1141)">
      <circle id="Ellipse_25-185" data-name="Ellipse 25" cx="2.5" cy="2.5" r="2.5" transform="translate(924 1221)" fill="#565665"/>
    </g>
    <g transform="translate(-834 -1141)">
      <circle id="Ellipse_25-186" data-name="Ellipse 25" cx="2.5" cy="2.5" r="2.5" transform="translate(924 1221)" fill="#565665"/>
    </g>
    <g transform="translate(-824 -1141)">
      <circle id="Ellipse_25-187" data-name="Ellipse 25" cx="2.5" cy="2.5" r="2.5" transform="translate(924 1221)" fill="#565665"/>
    </g>
    <g transform="translate(-814 -1141)">
      <circle id="Ellipse_25-188" data-name="Ellipse 25" cx="2.5" cy="2.5" r="2.5" transform="translate(924 1221)" fill="#565665"/>
    </g>
    <g transform="translate(-804 -1141)">
      <circle id="Ellipse_25-189" data-name="Ellipse 25" cx="2.5" cy="2.5" r="2.5" transform="translate(924 1221)" fill="#565665"/>
    </g>
    <g transform="translate(-794 -1141)">
      <circle id="Ellipse_25-190" data-name="Ellipse 25" cx="2.5" cy="2.5" r="2.5" transform="translate(924 1221)" fill="#565665"/>
    </g>
    <g transform="translate(-784 -1141)">
      <circle id="Ellipse_25-191" data-name="Ellipse 25" cx="2.5" cy="2.5" r="2.5" transform="translate(924 1221)" fill="#565665"/>
    </g>
    <g transform="translate(-774 -1141)">
      <circle id="Ellipse_25-192" data-name="Ellipse 25" cx="2.5" cy="2.5" r="2.5" transform="translate(924 1221)" fill="#565665"/>
    </g>
    <g transform="translate(-764 -1141)">
      <circle id="Ellipse_25-193" data-name="Ellipse 25" cx="2.5" cy="2.5" r="2.5" transform="translate(924 1221)" fill="#565665"/>
    </g>
    <g transform="translate(-754 -1141)">
      <circle id="Ellipse_25-194" data-name="Ellipse 25" cx="2.5" cy="2.5" r="2.5" transform="translate(924 1221)" fill="#565665"/>
    </g>
    <g transform="translate(-744 -1141)">
      <circle id="Ellipse_25-195" data-name="Ellipse 25" cx="2.5" cy="2.5" r="2.5" transform="translate(924 1221)" fill="#565665"/>
    </g>
    <g transform="translate(-734 -1141)">
      <circle id="Ellipse_25-196" data-name="Ellipse 25" cx="2.5" cy="2.5" r="2.5" transform="translate(924 1221)" fill="#565665"/>
    </g>
    <g transform="translate(-724 -1141)">
      <circle id="Ellipse_25-197" data-name="Ellipse 25" cx="2.5" cy="2.5" r="2.5" transform="translate(924 1221)" fill="#565665"/>
    </g>
    <g transform="translate(-714 -1141)">
      <circle id="Ellipse_25-198" data-name="Ellipse 25" cx="2.5" cy="2.5" r="2.5" transform="translate(924 1221)" fill="#565665"/>
    </g>
    <g transform="translate(-924 -1131)">
      <circle id="Ellipse_25-199" data-name="Ellipse 25" cx="2.5" cy="2.5" r="2.5" transform="translate(924 1221)" fill="#565665"/>
    </g>
    <g transform="translate(-914 -1131)">
      <circle id="Ellipse_25-200" data-name="Ellipse 25" cx="2.5" cy="2.5" r="2.5" transform="translate(924 1221)" fill="#565665"/>
    </g>
    <g transform="translate(-904 -1131)">
      <circle id="Ellipse_25-201" data-name="Ellipse 25" cx="2.5" cy="2.5" r="2.5" transform="translate(924 1221)" fill="#565665"/>
    </g>
    <g transform="translate(-894 -1131)">
      <circle id="Ellipse_25-202" data-name="Ellipse 25" cx="2.5" cy="2.5" r="2.5" transform="translate(924 1221)" fill="#565665"/>
    </g>
    <g transform="translate(-884 -1131)">
      <circle id="Ellipse_25-203" data-name="Ellipse 25" cx="2.5" cy="2.5" r="2.5" transform="translate(924 1221)" fill="#565665"/>
    </g>
    <g transform="translate(-874 -1131)">
      <circle id="Ellipse_25-204" data-name="Ellipse 25" cx="2.5" cy="2.5" r="2.5" transform="translate(924 1221)" fill="#565665"/>
    </g>
    <g transform="translate(-864 -1131)">
      <circle id="Ellipse_25-205" data-name="Ellipse 25" cx="2.5" cy="2.5" r="2.5" transform="translate(924 1221)" fill="#565665"/>
    </g>
    <g transform="translate(-854 -1131)">
      <circle id="Ellipse_25-206" data-name="Ellipse 25" cx="2.5" cy="2.5" r="2.5" transform="translate(924 1221)" fill="#565665"/>
    </g>
    <g transform="translate(-844 -1131)">
      <circle id="Ellipse_25-207" data-name="Ellipse 25" cx="2.5" cy="2.5" r="2.5" transform="translate(924 1221)" fill="#565665"/>
    </g>
    <g transform="translate(-834 -1131)">
      <circle id="Ellipse_25-208" data-name="Ellipse 25" cx="2.5" cy="2.5" r="2.5" transform="translate(924 1221)" fill="#565665"/>
    </g>
    <g transform="translate(-824 -1131)">
      <circle id="Ellipse_25-209" data-name="Ellipse 25" cx="2.5" cy="2.5" r="2.5" transform="translate(924 1221)" fill="#565665"/>
    </g>
    <g transform="translate(-814 -1131)">
      <circle id="Ellipse_25-210" data-name="Ellipse 25" cx="2.5" cy="2.5" r="2.5" transform="translate(924 1221)" fill="#565665"/>
    </g>
    <g transform="translate(-804 -1131)">
      <circle id="Ellipse_25-211" data-name="Ellipse 25" cx="2.5" cy="2.5" r="2.5" transform="translate(924 1221)" fill="#565665"/>
    </g>
    <g transform="translate(-794 -1131)">
      <circle id="Ellipse_25-212" data-name="Ellipse 25" cx="2.5" cy="2.5" r="2.5" transform="translate(924 1221)" fill="#565665"/>
    </g>
    <g transform="translate(-784 -1131)">
      <circle id="Ellipse_25-213" data-name="Ellipse 25" cx="2.5" cy="2.5" r="2.5" transform="translate(924 1221)" fill="#565665"/>
    </g>
    <g transform="translate(-774 -1131)">
      <circle id="Ellipse_25-214" data-name="Ellipse 25" cx="2.5" cy="2.5" r="2.5" transform="translate(924 1221)" fill="#565665"/>
    </g>
    <g transform="translate(-764 -1131)">
      <circle id="Ellipse_25-215" data-name="Ellipse 25" cx="2.5" cy="2.5" r="2.5" transform="translate(924 1221)" fill="#565665"/>
    </g>
    <g transform="translate(-754 -1131)">
      <circle id="Ellipse_25-216" data-name="Ellipse 25" cx="2.5" cy="2.5" r="2.5" transform="translate(924 1221)" fill="#565665"/>
    </g>
    <g transform="translate(-744 -1131)">
      <circle id="Ellipse_25-217" data-name="Ellipse 25" cx="2.5" cy="2.5" r="2.5" transform="translate(924 1221)" fill="#565665"/>
    </g>
    <g transform="translate(-734 -1131)">
      <circle id="Ellipse_25-218" data-name="Ellipse 25" cx="2.5" cy="2.5" r="2.5" transform="translate(924 1221)" fill="#565665"/>
    </g>
    <g transform="translate(-724 -1131)">
      <circle id="Ellipse_25-219" data-name="Ellipse 25" cx="2.5" cy="2.5" r="2.5" transform="translate(924 1221)" fill="#565665"/>
    </g>
    <g transform="translate(-714 -1131)">
      <circle id="Ellipse_25-220" data-name="Ellipse 25" cx="2.5" cy="2.5" r="2.5" transform="translate(924 1221)" fill="#565665"/>
    </g>
    <g transform="translate(-924 -1121)">
      <circle id="Ellipse_25-221" data-name="Ellipse 25" cx="2.5" cy="2.5" r="2.5" transform="translate(924 1221)" fill="#565665"/>
    </g>
    <g transform="translate(-914 -1121)">
      <circle id="Ellipse_25-222" data-name="Ellipse 25" cx="2.5" cy="2.5" r="2.5" transform="translate(924 1221)" fill="#565665"/>
    </g>
    <g transform="translate(-904 -1121)">
      <circle id="Ellipse_25-223" data-name="Ellipse 25" cx="2.5" cy="2.5" r="2.5" transform="translate(924 1221)" fill="#565665"/>
    </g>
    <g transform="translate(-894 -1121)">
      <circle id="Ellipse_25-224" data-name="Ellipse 25" cx="2.5" cy="2.5" r="2.5" transform="translate(924 1221)" fill="#565665"/>
    </g>
    <g transform="translate(-884 -1121)">
      <circle id="Ellipse_25-225" data-name="Ellipse 25" cx="2.5" cy="2.5" r="2.5" transform="translate(924 1221)" fill="#565665"/>
    </g>
    <g transform="translate(-874 -1121)">
      <circle id="Ellipse_25-226" data-name="Ellipse 25" cx="2.5" cy="2.5" r="2.5" transform="translate(924 1221)" fill="#565665"/>
    </g>
    <g transform="translate(-864 -1121)">
      <circle id="Ellipse_25-227" data-name="Ellipse 25" cx="2.5" cy="2.5" r="2.5" transform="translate(924 1221)" fill="#565665"/>
    </g>
    <g transform="translate(-854 -1121)">
      <circle id="Ellipse_25-228" data-name="Ellipse 25" cx="2.5" cy="2.5" r="2.5" transform="translate(924 1221)" fill="#565665"/>
    </g>
    <g transform="translate(-844 -1121)">
      <circle id="Ellipse_25-229" data-name="Ellipse 25" cx="2.5" cy="2.5" r="2.5" transform="translate(924 1221)" fill="#565665"/>
    </g>
    <g transform="translate(-834 -1121)">
      <circle id="Ellipse_25-230" data-name="Ellipse 25" cx="2.5" cy="2.5" r="2.5" transform="translate(924 1221)" fill="#565665"/>
    </g>
    <g transform="translate(-824 -1121)">
      <circle id="Ellipse_25-231" data-name="Ellipse 25" cx="2.5" cy="2.5" r="2.5" transform="translate(924 1221)" fill="#565665"/>
    </g>
    <g transform="translate(-814 -1121)">
      <circle id="Ellipse_25-232" data-name="Ellipse 25" cx="2.5" cy="2.5" r="2.5" transform="translate(924 1221)" fill="#565665"/>
    </g>
    <g transform="translate(-804 -1121)">
      <circle id="Ellipse_25-233" data-name="Ellipse 25" cx="2.5" cy="2.5" r="2.5" transform="translate(924 1221)" fill="#565665"/>
    </g>
    <g transform="translate(-794 -1121)">
      <circle id="Ellipse_25-234" data-name="Ellipse 25" cx="2.5" cy="2.5" r="2.5" transform="translate(924 1221)" fill="#565665"/>
    </g>
    <g transform="translate(-784 -1121)">
      <circle id="Ellipse_25-235" data-name="Ellipse 25" cx="2.5" cy="2.5" r="2.5" transform="translate(924 1221)" fill="#565665"/>
    </g>
    <g transform="translate(-774 -1121)">
      <circle id="Ellipse_25-236" data-name="Ellipse 25" cx="2.5" cy="2.5" r="2.5" transform="translate(924 1221)" fill="#565665"/>
    </g>
    <g transform="translate(-764 -1121)">
      <circle id="Ellipse_25-237" data-name="Ellipse 25" cx="2.5" cy="2.5" r="2.5" transform="translate(924 1221)" fill="#565665"/>
    </g>
    <g transform="translate(-754 -1121)">
      <circle id="Ellipse_25-238" data-name="Ellipse 25" cx="2.5" cy="2.5" r="2.5" transform="translate(924 1221)" fill="#565665"/>
    </g>
    <g transform="translate(-744 -1121)">
      <circle id="Ellipse_25-239" data-name="Ellipse 25" cx="2.5" cy="2.5" r="2.5" transform="translate(924 1221)" fill="#565665"/>
    </g>
    <g transform="translate(-734 -1121)">
      <circle id="Ellipse_25-240" data-name="Ellipse 25" cx="2.5" cy="2.5" r="2.5" transform="translate(924 1221)" fill="#565665"/>
    </g>
    <g transform="translate(-724 -1121)">
      <circle id="Ellipse_25-241" data-name="Ellipse 25" cx="2.5" cy="2.5" r="2.5" transform="translate(924 1221)" fill="#565665"/>
    </g>
    <g transform="translate(-714 -1121)">
      <circle id="Ellipse_25-242" data-name="Ellipse 25" cx="2.5" cy="2.5" r="2.5" transform="translate(924 1221)" fill="#565665"/>
    </g>
  </g>
</svg>
