<svg xmlns="http://www.w3.org/2000/svg" xmlns:xlink="http://www.w3.org/1999/xlink" width="780.058" height="712.591" viewBox="0 0 780.058 712.591"><defs><clipPath id="a"><rect width="370" height="174" transform="translate(682 293)" fill="#61aa93"/></clipPath><clipPath id="b"><rect width="370" height="174" transform="translate(682 293)" fill="#ea869d"/></clipPath><clipPath id="c"><rect width="370" height="174" transform="translate(682 293)" fill="#c7546f"/></clipPath><clipPath id="d"><rect width="370" height="174" transform="translate(682 293)" fill="#32323a"/></clipPath><clipPath id="f"><rect width="370" height="174" transform="translate(682 293)" fill="#2b2b31"/></clipPath></defs><g transform="translate(249.958 13.357)"><g transform="matrix(0.966, -0.259, 0.259, 0.966, -126.346, 134.177)"><g transform="translate(-763 -306)" clip-path="url(#a)"><rect width="400" height="60" transform="matrix(0.966, 0.259, -0.259, 0.966, 681.579, 300)" fill="#61aa93"/></g><g transform="translate(-730 43)" clip-path="url(#b)"><rect width="400" height="60" transform="matrix(0.966, 0.259, -0.259, 0.966, 681.579, 300)" fill="#ea869d"/></g><g transform="translate(-561.008 88.293)" clip-path="url(#c)"><rect width="400" height="60" transform="matrix(0.966, 0.259, -0.259, 0.966, 681.579, 300)" fill="#c7546f"/></g><g transform="translate(-721.135 107.504)" clip-path="url(#d)"><rect width="400" height="60" transform="matrix(0.966, 0.259, -0.259, 0.966, 681.579, 300)" fill="#32323a"/></g><g transform="translate(-788 -375)" clip-path="url(#d)"><rect width="400" height="60" transform="matrix(0.966, 0.259, -0.259, 0.966, 681.579, 300)" fill="#32323a"/></g><g transform="translate(-454.351 -161.141)" clip-path="url(#f)"><rect width="400" height="60" transform="matrix(0.966, 0.259, -0.259, 0.966, 681.579, 300)" fill="#2b2b31"/></g></g></g></svg>