<svg xmlns="http://www.w3.org/2000/svg" xmlns:xlink="http://www.w3.org/1999/xlink" width="801.046" height="721.323" viewBox="0 0 801.046 721.323"><defs><clipPath id="a"><rect width="370" height="174" transform="translate(682 293)" fill="#d9a75c"/></clipPath><clipPath id="b"><rect width="370" height="174" transform="translate(682 293)" fill="#2b2b31"/></clipPath><clipPath id="c"><rect width="370" height="174" transform="translate(682 293)" fill="#ffd392"/></clipPath><clipPath id="d"><rect width="370" height="174" transform="translate(682 293)" fill="#32323a"/></clipPath><clipPath id="f"><rect width="370" height="174" transform="translate(682 293)" fill="#61aa93"/></clipPath></defs><g transform="translate(-1460.912 -22.034)"><g transform="matrix(0.966, -0.259, 0.259, 0.966, -126.346, 134.177)"><g transform="translate(0 0)"><g transform="translate(966.042 543.062)" clip-path="url(#a)"><rect width="400" height="60" transform="matrix(0.966, 0.259, -0.259, 0.966, 681.579, 300)" fill="#d9a75c"/></g><g transform="translate(768.042 428.062)" clip-path="url(#b)"><rect width="400" height="60" transform="matrix(0.966, 0.259, -0.259, 0.966, 681.579, 300)" fill="#2b2b31"/></g><g transform="translate(869.042 393.062)" clip-path="url(#c)"><rect width="400" height="60" transform="matrix(0.966, 0.259, -0.259, 0.966, 681.579, 300)" fill="#ffd392"/></g><g transform="translate(1122.042 647.062)" clip-path="url(#d)"><rect width="400" height="60" transform="matrix(0.966, 0.259, -0.259, 0.966, 681.579, 300)" fill="#32323a"/></g><g transform="translate(940.447 124.776)" clip-path="url(#b)"><rect width="400" height="60" transform="matrix(0.966, 0.259, -0.259, 0.966, 681.579, 300)" fill="#2b2b31"/></g><g transform="translate(996.447 201.776)" clip-path="url(#f)"><rect width="400" height="60" transform="matrix(0.966, 0.259, -0.259, 0.966, 681.579, 300)" fill="#61aa93"/></g></g></g></g></svg>